<svg xmlns="http://www.w3.org/2000/svg" width="30.681" height="40.283" viewBox="0 0 30.681 40.283">
  <path id="Subtraction_38" data-name="Subtraction 38" d="M15.492,40.283h0a69.4,69.4,0,0,1-6.485-6.658C5.894,29.981,1.894,24.483.51,18.984A14.953,14.953,0,0,1,4.493,4.425a15.507,15.507,0,0,1,21.694,0,14.892,14.892,0,0,1,4.493,10.681v.132a.081.081,0,0,1,0,.02,15.226,15.226,0,0,1-.107,1.66,24.175,24.175,0,0,1-2.932,8.524,48.19,48.19,0,0,1-5.12,7.49,65.423,65.423,0,0,1-7.028,7.35ZM15.34,7.554a7.554,7.554,0,1,0,7.669,7.553A7.621,7.621,0,0,0,15.34,7.554Z" fill="#013220"/>
</svg>
